<?xml version="1.0" encoding="UTF-8" ?>
<svg version="1.1" width="16" height="16" xmlns="http://www.w3.org/2000/svg" shape-rendering="crispEdges">
<rect x="0" y="0" width="1" height="1" fill="#040206" />
<rect x="1" y="0" width="1" height="1" fill="#13070C" />
<rect x="2" y="0" width="1" height="1" fill="#011904" />
<rect x="3" y="0" width="1" height="1" fill="#19100F" />
<rect x="4" y="0" width="1" height="1" fill="#090615" />
<rect x="5" y="0" width="1" height="1" fill="#170A16" />
<rect x="6" y="0" width="1" height="1" fill="#08171A" />
<rect x="7" y="0" width="1" height="1" fill="#1B141B" />
<rect x="8" y="0" width="1" height="1" fill="#3D080C" />
<rect x="9" y="0" width="1" height="1" fill="#3F130F" />
<rect x="10" y="0" width="1" height="1" fill="#27091B" />
<rect x="11" y="0" width="1" height="1" fill="#330A1C" />
<rect x="12" y="0" width="1" height="1" fill="#24181E" />
<rect x="13" y="0" width="1" height="1" fill="#3C161C" />
<rect x="14" y="0" width="1" height="1" fill="#012609" />
<rect x="15" y="0" width="1" height="1" fill="#02320D" />
<rect x="0" y="1" width="1" height="1" fill="#022B15" />
<rect x="1" y="1" width="1" height="1" fill="#16291C" />
<rect x="2" y="1" width="1" height="1" fill="#053719" />
<rect x="3" y="1" width="1" height="1" fill="#13391A" />
<rect x="4" y="1" width="1" height="1" fill="#202F1C" />
<rect x="5" y="1" width="1" height="1" fill="#090D23" />
<rect x="6" y="1" width="1" height="1" fill="#180E23" />
<rect x="7" y="1" width="1" height="1" fill="#0C1525" />
<rect x="8" y="1" width="1" height="1" fill="#191925" />
<rect x="9" y="1" width="1" height="1" fill="#1B1D31" />
<rect x="10" y="1" width="1" height="1" fill="#2A0C22" />
<rect x="11" y="1" width="1" height="1" fill="#340D24" />
<rect x="12" y="1" width="1" height="1" fill="#281C23" />
<rect x="13" y="1" width="1" height="1" fill="#341828" />
<rect x="14" y="1" width="1" height="1" fill="#391D30" />
<rect x="15" y="1" width="1" height="1" fill="#022A25" />
<rect x="0" y="2" width="1" height="1" fill="#1C232A" />
<rect x="1" y="2" width="1" height="1" fill="#0A3B25" />
<rect x="2" y="2" width="1" height="1" fill="#133D27" />
<rect x="3" y="2" width="1" height="1" fill="#062B31" />
<rect x="4" y="2" width="1" height="1" fill="#1D2431" />
<rect x="5" y="2" width="1" height="1" fill="#093C32" />
<rect x="6" y="2" width="1" height="1" fill="#123E32" />
<rect x="7" y="2" width="1" height="1" fill="#2C2228" />
<rect x="8" y="2" width="1" height="1" fill="#34272C" />
<rect x="9" y="2" width="1" height="1" fill="#27362B" />
<rect x="10" y="2" width="1" height="1" fill="#3A332D" />
<rect x="11" y="2" width="1" height="1" fill="#2A2832" />
<rect x="12" y="2" width="1" height="1" fill="#3A2C32" />
<rect x="13" y="2" width="1" height="1" fill="#2B3932" />
<rect x="14" y="2" width="1" height="1" fill="#3D3134" />
<rect x="15" y="2" width="1" height="1" fill="#470C12" />
<rect x="0" y="3" width="1" height="1" fill="#48181A" />
<rect x="1" y="3" width="1" height="1" fill="#521B1B" />
<rect x="2" y="3" width="1" height="1" fill="#4B261E" />
<rect x="3" y="3" width="1" height="1" fill="#57211D" />
<rect x="4" y="3" width="1" height="1" fill="#431B26" />
<rect x="5" y="3" width="1" height="1" fill="#581E26" />
<rect x="6" y="3" width="1" height="1" fill="#431C31" />
<rect x="7" y="3" width="1" height="1" fill="#442C2C" />
<rect x="8" y="3" width="1" height="1" fill="#572C29" />
<rect x="9" y="3" width="1" height="1" fill="#46322E" />
<rect x="10" y="3" width="1" height="1" fill="#5B332C" />
<rect x="11" y="3" width="1" height="1" fill="#432E32" />
<rect x="12" y="3" width="1" height="1" fill="#582D32" />
<rect x="13" y="3" width="1" height="1" fill="#483536" />
<rect x="14" y="3" width="1" height="1" fill="#543B38" />
<rect x="15" y="3" width="1" height="1" fill="#652D2A" />
<rect x="0" y="4" width="1" height="1" fill="#772B2B" />
<rect x="1" y="4" width="1" height="1" fill="#66362D" />
<rect x="2" y="4" width="1" height="1" fill="#753C2C" />
<rect x="3" y="4" width="1" height="1" fill="#792C32" />
<rect x="4" y="4" width="1" height="1" fill="#693B34" />
<rect x="5" y="4" width="1" height="1" fill="#733D36" />
<rect x="6" y="4" width="1" height="1" fill="#09431E" />
<rect x="7" y="4" width="1" height="1" fill="#14461E" />
<rect x="8" y="4" width="1" height="1" fill="#0D4427" />
<rect x="9" y="4" width="1" height="1" fill="#154A2C" />
<rect x="10" y="4" width="1" height="1" fill="#0A542C" />
<rect x="11" y="4" width="1" height="1" fill="#19522E" />
<rect x="12" y="4" width="1" height="1" fill="#0C4635" />
<rect x="13" y="4" width="1" height="1" fill="#194D31" />
<rect x="14" y="4" width="1" height="1" fill="#0A5833" />
<rect x="15" y="4" width="1" height="1" fill="#1C5533" />
<rect x="0" y="5" width="1" height="1" fill="#24482D" />
<rect x="1" y="5" width="1" height="1" fill="#37422C" />
<rect x="2" y="5" width="1" height="1" fill="#23582E" />
<rect x="3" y="5" width="1" height="1" fill="#335F2E" />
<rect x="4" y="5" width="1" height="1" fill="#254B33" />
<rect x="5" y="5" width="1" height="1" fill="#374935" />
<rect x="6" y="5" width="1" height="1" fill="#235B37" />
<rect x="7" y="5" width="1" height="1" fill="#34593B" />
<rect x="8" y="5" width="1" height="1" fill="#0D662F" />
<rect x="9" y="5" width="1" height="1" fill="#15622F" />
<rect x="10" y="5" width="1" height="1" fill="#0B6335" />
<rect x="11" y="5" width="1" height="1" fill="#1A6438" />
<rect x="12" y="5" width="1" height="1" fill="#0B713B" />
<rect x="13" y="5" width="1" height="1" fill="#1A713B" />
<rect x="14" y="5" width="1" height="1" fill="#2C622D" />
<rect x="15" y="5" width="1" height="1" fill="#346E2C" />
<rect x="0" y="6" width="1" height="1" fill="#3D722E" />
<rect x="1" y="6" width="1" height="1" fill="#2A643B" />
<rect x="2" y="6" width="1" height="1" fill="#346A3C" />
<rect x="3" y="6" width="1" height="1" fill="#27733D" />
<rect x="4" y="6" width="1" height="1" fill="#3A723E" />
<rect x="5" y="6" width="1" height="1" fill="#46422D" />
<rect x="6" y="6" width="1" height="1" fill="#58442C" />
<rect x="7" y="6" width="1" height="1" fill="#494339" />
<rect x="8" y="6" width="1" height="1" fill="#58423C" />
<rect x="9" y="6" width="1" height="1" fill="#47533D" />
<rect x="10" y="6" width="1" height="1" fill="#5A513E" />
<rect x="11" y="6" width="1" height="1" fill="#6E402E" />
<rect x="12" y="6" width="1" height="1" fill="#7B422E" />
<rect x="13" y="6" width="1" height="1" fill="#6B4238" />
<rect x="14" y="6" width="1" height="1" fill="#784439" />
<rect x="15" y="6" width="1" height="1" fill="#6A513F" />
<rect x="0" y="7" width="1" height="1" fill="#79503C" />
<rect x="1" y="7" width="1" height="1" fill="#41742F" />
<rect x="2" y="7" width="1" height="1" fill="#426B38" />
<rect x="3" y="7" width="1" height="1" fill="#477C3B" />
<rect x="4" y="7" width="1" height="1" fill="#517D3D" />
<rect x="5" y="7" width="1" height="1" fill="#3B3740" />
<rect x="6" y="7" width="1" height="1" fill="#4A3C41" />
<rect x="7" y="7" width="1" height="1" fill="#573D40" />
<rect x="8" y="7" width="1" height="1" fill="#6D3C43" />
<rect x="9" y="7" width="1" height="1" fill="#0D4B41" />
<rect x="10" y="7" width="1" height="1" fill="#144C41" />
<rect x="11" y="7" width="1" height="1" fill="#1B5742" />
<rect x="12" y="7" width="1" height="1" fill="#2C4F40" />
<rect x="13" y="7" width="1" height="1" fill="#344642" />
<rect x="14" y="7" width="1" height="1" fill="#265C42" />
<rect x="15" y="7" width="1" height="1" fill="#375D43" />
<rect x="0" y="8" width="1" height="1" fill="#1D6642" />
<rect x="1" y="8" width="1" height="1" fill="#1E7341" />
<rect x="2" y="8" width="1" height="1" fill="#2C6742" />
<rect x="3" y="8" width="1" height="1" fill="#356D42" />
<rect x="4" y="8" width="1" height="1" fill="#2C7344" />
<rect x="5" y="8" width="1" height="1" fill="#3B7445" />
<rect x="6" y="8" width="1" height="1" fill="#346C51" />
<rect x="7" y="8" width="1" height="1" fill="#2F7150" />
<rect x="8" y="8" width="1" height="1" fill="#3D7A51" />
<rect x="9" y="8" width="1" height="1" fill="#4D4242" />
<rect x="10" y="8" width="1" height="1" fill="#5A4542" />
<rect x="11" y="8" width="1" height="1" fill="#455942" />
<rect x="12" y="8" width="1" height="1" fill="#5B5448" />
<rect x="13" y="8" width="1" height="1" fill="#654944" />
<rect x="14" y="8" width="1" height="1" fill="#7B4941" />
<rect x="15" y="8" width="1" height="1" fill="#675247" />
<rect x="0" y="9" width="1" height="1" fill="#765448" />
<rect x="1" y="9" width="1" height="1" fill="#675853" />
<rect x="2" y="9" width="1" height="1" fill="#755A52" />
<rect x="3" y="9" width="1" height="1" fill="#45694A" />
<rect x="4" y="9" width="1" height="1" fill="#556C4C" />
<rect x="5" y="9" width="1" height="1" fill="#437A48" />
<rect x="6" y="9" width="1" height="1" fill="#537C45" />
<rect x="7" y="9" width="1" height="1" fill="#496B52" />
<rect x="8" y="9" width="1" height="1" fill="#546E54" />
<rect x="9" y="9" width="1" height="1" fill="#457C51" />
<rect x="10" y="9" width="1" height="1" fill="#557658" />
<rect x="11" y="9" width="1" height="1" fill="#657948" />
<rect x="12" y="9" width="1" height="1" fill="#6A6D51" />
<rect x="13" y="9" width="1" height="1" fill="#79645A" />
<rect x="14" y="9" width="1" height="1" fill="#647C5A" />
<rect x="15" y="9" width="1" height="1" fill="#587D62" />
<rect x="0" y="10" width="1" height="1" fill="#647C65" />
<rect x="1" y="10" width="1" height="1" fill="#862D2D" />
<rect x="2" y="10" width="1" height="1" fill="#86362D" />
<rect x="3" y="10" width="1" height="1" fill="#872D32" />
<rect x="4" y="10" width="1" height="1" fill="#972D32" />
<rect x="5" y="10" width="1" height="1" fill="#873937" />
<rect x="6" y="10" width="1" height="1" fill="#963839" />
<rect x="7" y="10" width="1" height="1" fill="#A23C3B" />
<rect x="8" y="10" width="1" height="1" fill="#83462E" />
<rect x="9" y="10" width="1" height="1" fill="#954A2E" />
<rect x="10" y="10" width="1" height="1" fill="#91502E" />
<rect x="11" y="10" width="1" height="1" fill="#864B37" />
<rect x="12" y="10" width="1" height="1" fill="#934B39" />
<rect x="13" y="10" width="1" height="1" fill="#8C523A" />
<rect x="14" y="10" width="1" height="1" fill="#95573C" />
<rect x="15" y="10" width="1" height="1" fill="#AF5F2F" />
<rect x="0" y="11" width="1" height="1" fill="#A5463D" />
<rect x="1" y="11" width="1" height="1" fill="#A45C3C" />
<rect x="2" y="11" width="1" height="1" fill="#B25E3B" />
<rect x="3" y="11" width="1" height="1" fill="#9E613D" />
<rect x="4" y="11" width="1" height="1" fill="#A6643E" />
<rect x="5" y="11" width="1" height="1" fill="#B5663E" />
<rect x="6" y="11" width="1" height="1" fill="#B5713F" />
<rect x="7" y="11" width="1" height="1" fill="#CF7D3E" />
<rect x="8" y="11" width="1" height="1" fill="#883E41" />
<rect x="9" y="11" width="1" height="1" fill="#983C41" />
<rect x="10" y="11" width="1" height="1" fill="#A83F44" />
<rect x="11" y="11" width="1" height="1" fill="#925642" />
<rect x="12" y="11" width="1" height="1" fill="#A45B43" />
<rect x="13" y="11" width="1" height="1" fill="#9A6A51" />
<rect x="14" y="11" width="1" height="1" fill="#B16F48" />
<rect x="15" y="11" width="1" height="1" fill="#9C7A64" />
<rect x="0" y="12" width="1" height="1" fill="#A37C65" />
<rect x="1" y="12" width="1" height="1" fill="#C37C4F" />
<rect x="2" y="12" width="1" height="1" fill="#3F803F" />
<rect x="3" y="12" width="1" height="1" fill="#4F853D" />
<rect x="4" y="12" width="1" height="1" fill="#769A3C" />
<rect x="5" y="12" width="1" height="1" fill="#7DA23E" />
<rect x="6" y="12" width="1" height="1" fill="#3D8348" />
<rect x="7" y="12" width="1" height="1" fill="#568D48" />
<rect x="8" y="12" width="1" height="1" fill="#64994D" />
<rect x="9" y="12" width="1" height="1" fill="#6FA553" />
<rect x="10" y="12" width="1" height="1" fill="#5C8D63" />
<rect x="11" y="12" width="1" height="1" fill="#728C6C" />
<rect x="12" y="12" width="1" height="1" fill="#76B062" />
<rect x="13" y="12" width="1" height="1" fill="#7EC052" />
<rect x="14" y="12" width="1" height="1" fill="#809E3F" />
<rect x="15" y="12" width="1" height="1" fill="#83A63E" />
<rect x="0" y="13" width="1" height="1" fill="#BF804F" />
<rect x="1" y="13" width="1" height="1" fill="#92B64D" />
<rect x="2" y="13" width="1" height="1" fill="#A2BE4F" />
<rect x="3" y="13" width="1" height="1" fill="#8A9378" />
<rect x="4" y="13" width="1" height="1" fill="#B28F76" />
<rect x="5" y="13" width="1" height="1" fill="#86B963" />
<rect x="6" y="13" width="1" height="1" fill="#CB8654" />
<rect x="7" y="13" width="1" height="1" fill="#E79456" />
<rect x="8" y="13" width="1" height="1" fill="#F4A35F" />
<rect x="9" y="13" width="1" height="1" fill="#C49A7A" />
<rect x="10" y="13" width="1" height="1" fill="#E89A62" />
<rect x="11" y="13" width="1" height="1" fill="#C8A17E" />
<rect x="12" y="13" width="1" height="1" fill="#F4A464" />
<rect x="13" y="13" width="1" height="1" fill="#9DC154" />
<rect x="14" y="13" width="1" height="1" fill="#A7C856" />
<rect x="15" y="13" width="1" height="1" fill="#BCE05A" />
<rect x="0" y="14" width="1" height="1" fill="#8EC465" />
<rect x="1" y="14" width="1" height="1" fill="#B2D261" />
<rect x="2" y="14" width="1" height="1" fill="#BFE366" />
<rect x="3" y="14" width="1" height="1" fill="#C4DB58" />
<rect x="4" y="14" width="1" height="1" fill="#CCE55B" />
<rect x="5" y="14" width="1" height="1" fill="#C5DC62" />
<rect x="6" y="14" width="1" height="1" fill="#D2EA64" />
<rect x="7" y="14" width="1" height="1" fill="#E5F66A" />
<rect x="8" y="14" width="1" height="1" fill="#789882" />
<rect x="9" y="14" width="1" height="1" fill="#929A83" />
<rect x="10" y="14" width="1" height="1" fill="#BD9A82" />
<rect x="11" y="14" width="1" height="1" fill="#98A88B" />
<rect x="12" y="14" width="1" height="1" fill="#AEAE93" />
<rect x="13" y="14" width="1" height="1" fill="#B7BBA3" />
<rect x="14" y="14" width="1" height="1" fill="#C19E85" />
<rect x="15" y="14" width="1" height="1" fill="#C8A58B" />
<rect x="0" y="15" width="1" height="1" fill="#E6B997" />
<rect x="1" y="15" width="1" height="1" fill="#D5BCA3" />
<rect x="2" y="15" width="1" height="1" fill="#E5BEA2" />
<rect x="3" y="15" width="1" height="1" fill="#B9C29E" />
<rect x="4" y="15" width="1" height="1" fill="#B9C4A8" />
<rect x="5" y="15" width="1" height="1" fill="#EBC19D" />
<rect x="6" y="15" width="1" height="1" fill="#D2CCB2" />
<rect x="7" y="15" width="1" height="1" fill="#EDD9BC" />
<rect x="8" y="15" width="1" height="1" fill="#DEE0BF" />
<rect x="9" y="15" width="1" height="1" fill="#F1E2BD" />
<rect x="10" y="15" width="1" height="1" fill="#DCDAC3" />
<rect x="11" y="15" width="1" height="1" fill="#F1DEC3" />
<rect x="12" y="15" width="1" height="1" fill="#FAEBCF" />
<rect x="13" y="15" width="1" height="1" fill="#FEFDF1" />
<rect x="14" y="15" width="2" height="1" fill="#040206" />
</svg>